<svg xmlns="http://www.w3.org/2000/svg" viewBox="102.5416 335.0573 1449.1706 1437.0183" width="25.92" height="25.92" fill="currentColor" stroke="currentColor" stroke-width="60" stroke-linejoin="round" stroke-linecap="round" class="shrink-0 text-burgundy" aria-hidden="true"><path fill-rule="nonzero" d="M 739.195312 450.75 C 701.417969 450.75 666.398438 451.46875 632.140625 452.960938 C 558.019531 456.191406 486.773438 466.140625 420.382812 482.550781 C 341.058594 502.160156 285.898438 553.53125 256.4375 635.261719 C 238.585938 684.78125 233.921875 734.699219 231.542969 781.269531 C 229.789062 815.640625 227.382812 856.128906 222.851562 895.839844 C 219.398438 926.070312 219.890625 955.609375 220.363281 984.179688 C 220.4375 988.421875 220.507812 992.648438 220.5625 996.890625 C 221.972656 1100.78125 227.613281 1203.089844 235.648438 1324.761719 C 238.421875 1366.75 248.222656 1408.558594 264.773438 1449.011719 C 301.484375 1538.738281 369.398438 1598.46875 466.632812 1626.539062 C 519.023438 1641.671875 574.523438 1650.558594 636.304688 1653.738281 C 666.644531 1655.308594 697.820312 1656.058594 731.617188 1656.058594 C 810.085938 1656.070312 891.421875 1651.699219 956.773438 1648.191406 C 1027.789062 1644.378906 1086.960938 1641.460938 1143 1639.011719 C 1180.398438 1637.371094 1229.441406 1632.691406 1277.089844 1610.898438 C 1345.808594 1579.460938 1390.359375 1527.398438 1409.511719 1456.160156 C 1425.320312 1397.328125 1433.609375 1334.878906 1434.148438 1270.539062 C 1434.488281 1230.101562 1434.421875 1190.398438 1434.339844 1144.421875 C 1434.300781 1123.140625 1434.261719 1100.761719 1434.261719 1076.738281 L 1434.261719 1075.03125 L 1434.121094 1073.328125 C 1431.03125 1036.539062 1430.730469 995.109375 1430.410156 951.261719 C 1430.078125 906.039062 1429.738281 859.300781 1426.390625 811.761719 C 1422.78125 760.558594 1413.621094 707.5 1396.691406 639.710938 C 1395.199219 633.738281 1393.378906 628.339844 1391.78125 623.589844 C 1391.25 622 1390.71875 620.410156 1390.199219 618.820312 C 1366.730469 545.871094 1318.359375 501.421875 1246.429688 486.710938 C 1198.558594 476.910156 1141.820312 466.5 1084 463.539062 C 1068.890625 462.769531 1053.78125 461.980469 1038.660156 461.179688 C 940.722656 456.050781 839.449219 450.75 739.195312 450.75 Z M 727.09375 1694.441406 C 712.1875 1694.441406 697.179688 1694.320312 682.488281 1694.101562 C 588.957031 1692.660156 513.140625 1681.601562 443.898438 1659.308594 C 383.203125 1639.769531 334.8125 1609.921875 295.953125 1568.070312 C 238.722656 1506.429688 206.804688 1430.628906 198.371094 1336.359375 C 189.984375 1242.550781 186.578125 1146.25 183.28125 1053.128906 L 182.273438 1024.78125 C 180.175781 966.339844 184.433594 908.890625 188.941406 848.058594 C 191.015625 820.089844 193.15625 791.171875 194.589844 762.441406 C 197.382812 706.449219 206.496094 659.199219 222.449219 618 C 257.164062 528.328125 316.0625 473 402.503906 448.839844 C 471.597656 429.53125 544.769531 418.328125 619.992188 415.558594 C 672.285156 413.621094 720.4375 412.691406 767.199219 412.691406 C 836.746094 412.691406 900.867188 414.761719 963.21875 419.039062 C 985.886719 420.601562 1008.730469 421.621094 1030.808594 422.609375 C 1077.449219 424.710938 1121.5 426.679688 1165.519531 433.230469 C 1210.699219 439.949219 1258.75 448.488281 1303.988281 465.339844 C 1339 478.378906 1365.808594 498.800781 1385.949219 527.769531 C 1405.359375 555.691406 1418.75 582 1426.859375 608.199219 C 1450.5 684.488281 1464.03125 764.210938 1467.058594 845.140625 C 1468.328125 879.058594 1468.839844 913.808594 1469.339844 947.421875 C 1469.941406 988.558594 1470.570312 1031.109375 1472.589844 1073.261719 C 1474.078125 1110.058594 1473.480469 1148.058594 1472.890625 1184.800781 C 1472.46875 1211.429688 1472.03125 1238.960938 1472.371094 1266.328125 C 1473 1317.011719 1467.160156 1370.988281 1454.011719 1436.199219 C 1436.988281 1520.53125 1396.929688 1582.210938 1331.539062 1624.78125 C 1282.828125 1656.488281 1224.078125 1673.539062 1151.941406 1676.921875 C 1132.699219 1677.820312 1113.449219 1678.660156 1094.199219 1679.511719 C 1043.871094 1681.710938 991.828125 1684 940.503906 1687.300781 C 866.84375 1692.039062 795.039062 1694.441406 727.09375 1694.441406 "></path><path fill-rule="nonzero" d="M 344.464844 670.511719 C 352.167969 669.230469 354.019531 662.449219 357.234375 657.238281 C 374.757812 628.890625 398.460938 607.011719 426.878906 589.980469 C 437.902344 583.371094 450.339844 580.300781 462.242188 575.910156 C 467.148438 574.101562 470.804688 571.078125 469.28125 565.378906 C 467.6875 559.421875 462.375 559.480469 457.628906 560.03125 C 445.628906 561.410156 434.421875 565.800781 423.859375 571.25 C 390.679688 588.390625 364.128906 613.070312 343.550781 644.191406 C 340.046875 649.5 336.4375 654.988281 336.027344 661.480469 C 335.683594 666.96875 338.757812 670.351562 344.464844 670.511719 "></path><path fill-rule="nonzero" d="M 836.539062 773.328125 C 787.796875 774.378906 743.351562 784.910156 704.4375 804.621094 C 664.230469 824.988281 629.582031 855.308594 601.445312 894.75 C 557.402344 956.488281 541.488281 1031 556.632812 1104.558594 C 564.03125 1140.480469 578.433594 1173.949219 599.445312 1204.039062 C 621.183594 1235.171875 648.933594 1261.089844 681.917969 1281.089844 C 726.207031 1307.941406 777.304688 1322.128906 829.683594 1322.128906 C 920.277344 1322.128906 1006.449219 1279.589844 1060.199219 1208.328125 C 1116.570312 1133.589844 1130.941406 1037.148438 1098.648438 950.351562 C 1066.339844 863.511719 992.390625 799.878906 900.832031 780.148438 C 879.5 775.550781 859.3125 773.320312 839.105469 773.320312 Z M 830.652344 1360.351562 C 791.613281 1360.351562 752.917969 1353.351562 715.632812 1339.53125 C 647.722656 1314.351562 590.265625 1266.011719 553.84375 1203.398438 C 517.5625 1141.03125 504.542969 1068.570312 517.183594 999.359375 C 530.710938 925.261719 570.136719 858.03125 628.1875 810.058594 C 686.488281 761.878906 760.957031 735.308594 837.882812 735.238281 L 838.511719 735.238281 L 839.140625 735.21875 C 841.59375 735.140625 844.101562 735.101562 846.585938 735.101562 C 878.167969 735.101562 911.746094 741.339844 946.382812 753.648438 C 1017.539062 778.949219 1077.25 828.789062 1114.511719 894 C 1151.578125 958.890625 1163.449219 1033.828125 1147.929688 1105.019531 C 1131.699219 1179.511719 1091.730469 1243.621094 1032.328125 1290.398438 C 975.046875 1335.511719 903.425781 1360.351562 830.652344 1360.351562 "></path><path fill-rule="nonzero" d="M 1199.308594 611.171875 C 1161.289062 611.398438 1130.5 641.410156 1130.570312 678.171875 C 1130.628906 714.78125 1163.480469 746.398438 1201.339844 746.300781 C 1237.699219 746.199219 1272.441406 712.988281 1272.859375 677.921875 C 1273.308594 640.851562 1240.328125 610.910156 1199.308594 611.171875 "></path></svg>